0
SECTION
2
HEADER
9
$INSUNITS
70
4
9
$ACADVER
1
AC1014
9
$HANDSEED
5
FFFF
0
ENDSEC
0
SECTION
2
TABLES
0
TABLE
2
VPORT
5
8
100
AcDbSymbolTable
0
ENDTAB
0
TABLE
2
LTYPE
5
5
100
AcDbSymbolTable
0
LTYPE
5
14
100
AcDbSymbolTableRecord
100
AcDbLinetypeTableRecord
2
BYBLOCK
70
0
0
LTYPE
5
15
100
AcDbSymbolTableRecord
100
AcDbLinetypeTableRecord
2
BYLAYER
70
0
0
ENDTAB
0
TABLE
2
LAYER
5
2
100
AcDbSymbolTable
70
2
0
LAYER
5
50
100
AcDbSymbolTableRecord
100
AcDbLayerTableRecord
2
0
70
0
6
CONTINUOUS
0
ENDTAB
0
TABLE
2
STYLE
5
3
100
AcDbSymbolTable
70
1
0
STYLE
5
11
100
AcDbSymbolTableRecord
100
AcDbTextStyleTableRecord
2
STANDARD
70
0
0
ENDTAB
0
TABLE
2
VIEW
5
6
100
AcDbSymbolTable
70
0
0
ENDTAB
0
TABLE
2
UCS
5
7
100
AcDbSymbolTable
70
0
0
ENDTAB
0
TABLE
2
APPID
5
9
100
AcDbSymbolTable
70
2
0
APPID
5
12
100
AcDbSymbolTableRecord
100
AcDbRegAppTableRecord
2
ACAD
70
0
0
ENDTAB
0
TABLE
2
DIMSTYLE
5
A
100
AcDbSymbolTable
70
1
0
ENDTAB
0
TABLE
2
BLOCK_RECORD
5
1
100
AcDbSymbolTable
70
1
0
BLOCK_RECORD
5
1F
100
AcDbSymbolTableRecord
100
AcDbBlockTableRecord
2
*MODEL_SPACE
0
BLOCK_RECORD
5
1B
100
AcDbSymbolTableRecord
100
AcDbBlockTableRecord
2
*PAPER_SPACE
0
ENDTAB
0
ENDSEC
0
SECTION
2
BLOCKS
0
BLOCK
5
20
100
AcDbEntity
100
AcDbBlockBegin
2
*MODEL_SPACE
0
ENDBLK
5
21
100
AcDbEntity
100
AcDbBlockEnd
0
BLOCK
5
1C
100
AcDbEntity
100
AcDbBlockBegin
2
*PAPER_SPACE
0
ENDBLK
5
1D
100
AcDbEntity
100
AcDbBlockEnd
0
ENDSEC
0
SECTION
2
ENTITIES
0
LWPOLYLINE
5
100
100
AcDbEntity
8
0
100
AcDbPolyline
90
4
70
1
43
0.0
10
100.32993900000001
20
-56.501286000000007
10
100.32993900000001
20
-42.503334000000009
10
86.331986000000001
20
-42.503334000000009
10
86.331986000000001
20
-56.501286000000007
0
LWPOLYLINE
5
101
100
AcDbEntity
8
0
100
AcDbPolyline
90
4
70
1
43
0.0
10
48.231955000000006
20
-42.503334000000009
10
48.231955000000006
20
-56.501286000000007
10
62.229907999999995
20
-56.501286000000007
10
62.229907999999995
20
-42.503334000000009
0
LWPOLYLINE
5
102
100
AcDbEntity
8
0
100
AcDbPolyline
90
4
70
1
43
0.0
10
81.27992900000001
20
-42.503334000000009
10
67.281976
20
-42.503334000000009
10
67.281976
20
-56.501286000000007
10
81.27992900000001
20
-56.501286000000007
0
SPLINE
5
103
100
AcDbEntity
8
0
100
AcDbSpline
70
0
71
3
72
8
73
4
74
0
42
0.000000001
43
0.0000000001
44
0.0000000001
40
0
40
0
40
0
40
0
40
1
40
1
40
1
40
1
10
3.1322950000000005
20
-61.408730000000006
30
0
10
2.7278330000000004
20
-61.408730000000006
30
0
10
2.3631959999999999
20
-61.652372
30
0
10
2.2084150000000005
20
-62.026047000000005
30
0
0
SPLINE
5
104
100
AcDbEntity
8
0
100
AcDbSpline
70
0
71
3
72
8
73
4
74
0
42
0.000000001
43
0.0000000001
44
0.0000000001
40
0
40
0
40
0
40
0
40
1
40
1
40
1
40
1
10
2.4251879999999999
20
-63.115838000000011
30
0
10
2.7111860000000005
20
-63.401835999999996
30
0
10
3.1413040000000003
20
-63.487392000000007
30
0
10
3.5149790000000003
20
-63.332611000000007
30
0
0
SPLINE
5
105
100
AcDbEntity
8
0
100
AcDbSpline
70
0
71
3
72
8
73
4
74
0
42
0.000000001
43
0.0000000001
44
0.0000000001
40
0
40
0
40
0
40
0
40
1
40
1
40
1
40
1
10
2.2084150000000005
20
-62.026047000000005
30
0
10
2.0536340000000002
20
-62.399721
30
0
10
2.1391900000000001
20
-62.829840000000004
30
0
10
2.4251879999999999
20
-63.115838000000011
30
0
0
SPLINE
5
106
100
AcDbEntity
8
0
100
AcDbSpline
70
0
71
3
72
8
73
4
74
0
42
0.000000001
43
0.0000000001
44
0.0000000001
40
0
40
0
40
0
40
0
40
1
40
1
40
1
40
1
10
3.5149790000000003
20
-63.332611000000007
30
0
10
3.8886540000000003
20
-63.177830000000014
30
0
10
4.1322960000000002
20
-62.813193000000005
30
0
10
4.1322960000000002
20
-62.408730000000006
30
0
0
SPLINE
5
107
100
AcDbEntity
8
0
100
AcDbSpline
70
0
71
3
72
8
73
4
74
0
42
0.000000001
43
0.0000000001
44
0.0000000001
40
0
40
0
40
0
40
0
40
1
40
1
40
1
40
1
10
4.1322960000000002
20
-62.408730000000006
30
0
10
4.1322960000000002
20
-62.14351400000001
30
0
10
4.0269389999999996
20
-61.889159999999997
30
0
10
3.8394029999999999
20
-61.701623000000005
30
0
0
SPLINE
5
108
100
AcDbEntity
8
0
100
AcDbSpline
70
0
71
3
72
8
73
4
74
0
42
0.000000001
43
0.0000000001
44
0.0000000001
40
0
40
0
40
0
40
0
40
1
40
1
40
1
40
1
10
3.8394029999999999
20
-61.701623000000005
30
0
10
3.6518660000000009
20
-61.514087000000004
30
0
10
3.3975120000000003
20
-61.408730000000006
30
0
10
3.1322950000000005
20
-61.408730000000006
30
0
0
SPLINE
5
109
100
AcDbEntity
8
0
100
AcDbSpline
70
0
71
3
72
8
73
4
74
0
42
0.000000001
43
0.0000000001
44
0.0000000001
40
0
40
0
40
0
40
0
40
1
40
1
40
1
40
1
10
232.15547400000005
20
-11.282406
30
0
10
232.15547400000005
20
-11.017189
30
0
10
232.050117
20
-10.762835000000003
30
0
10
231.86258100000003
20
-10.575299000000003
30
0
0
SPLINE
5
110
100
AcDbEntity
8
0
100
AcDbSpline
70
0
71
3
72
8
73
4
74
0
42
0.000000001
43
0.0000000001
44
0.0000000001
40
0
40
0
40
0
40
0
40
1
40
1
40
1
40
1
10
230.44836600000002
20
-11.989513000000001
30
0
10
230.73436400000003
20
-12.275511999999999
30
0
10
231.16448300000002
20
-12.361067000000002
30
0
10
231.53815699999998
20
-12.206286000000002
30
0
0
SPLINE
5
111
100
AcDbEntity
8
0
100
AcDbSpline
70
0
71
3
72
8
73
4
74
0
42
0.000000001
43
0.0000000001
44
0.0000000001
40
0
40
0
40
0
40
0
40
1
40
1
40
1
40
1
10
230.34486200000003
20
-62.322437000000008
30
0
10
230.19008100000002
20
-62.696111999999999
30
0
10
230.27563700000002
20
-63.126230000000014
30
0
10
230.561635
20
-63.412228000000006
30
0
0
SPLINE
5
112
100
AcDbEntity
8
0
100
AcDbSpline
70
0
71
3
72
8
73
4
74
0
42
0.000000001
43
0.0000000001
44
0.0000000001
40
0
40
0
40
0
40
0
40
1
40
1
40
1
40
1
10
231.53815699999998
20
-12.206286000000002
30
0
10
231.91183199999998
20
-12.051505000000002
30
0
10
232.15547400000005
20
-11.686869
30
0
10
232.15547400000005
20
-11.282406
30
0
0
SPLINE
5
113
100
AcDbEntity
8
0
100
AcDbSpline
70
0
71
3
72
8
73
4
74
0
42
0.000000001
43
0.0000000001
44
0.0000000001
40
0
40
0
40
0
40
0
40
1
40
1
40
1
40
1
10
231.26874200000003
20
-61.705119999999994
30
0
10
230.86427999999998
20
-61.705119999999994
30
0
10
230.49964300000002
20
-61.948762000000002
30
0
10
230.34486200000003
20
-62.322437000000008
30
0
0
SPLINE
5
114
100
AcDbEntity
8
0
100
AcDbSpline
70
0
71
3
72
8
73
4
74
0
42
0.000000001
43
0.0000000001
44
0.0000000001
40
0
40
0
40
0
40
0
40
1
40
1
40
1
40
1
10
231.65142599999999
20
-63.629001000000009
30
0
10
232.02510099999998
20
-63.474220000000003
30
0
10
232.26874300000006
20
-63.109582999999994
30
0
10
232.26874300000006
20
-62.705121000000005
30
0
0
SPLINE
5
115
100
AcDbEntity
8
0
100
AcDbSpline
70
0
71
3
72
8
73
4
74
0
42
0.000000001
43
0.0000000001
44
0.0000000001
40
0
40
0
40
0
40
0
40
1
40
1
40
1
40
1
10
230.561635
20
-63.412228000000006
30
0
10
230.84763300000003
20
-63.698225999999998
30
0
10
231.27775099999997
20
-63.783782000000002
30
0
10
231.65142599999999
20
-63.629001000000009
30
0
0
SPLINE
5
116
100
AcDbEntity
8
0
100
AcDbSpline
70
0
71
3
72
8
73
4
74
0
42
0.000000001
43
0.0000000001
44
0.0000000001
40
0
40
0
40
0
40
0
40
1
40
1
40
1
40
1
10
232.26874300000006
20
-62.705121000000005
30
0
10
232.26874300000006
20
-62.439904000000013
30
0
10
232.163386
20
-62.185550000000006
30
0
10
231.97585000000004
20
-61.998013000000007
30
0
0
LINE
5
117
100
AcDbEntity
8
0
100
AcDbLine
10
197.99645200000001
20
-63.905391000000009
30
0
11
186.11744200000001
21
-63.905391000000009
31
0
0
SPLINE
5
118
100
AcDbEntity
8
0
100
AcDbSpline
70
0
71
3
72
8
73
4
74
0
42
0.000000001
43
0.0000000001
44
0.0000000001
40
0
40
0
40
0
40
0
40
1
40
1
40
1
40
1
10
231.86258100000003
20
-10.575299000000003
30
0
10
231.67504399999999
20
-10.387762
30
0
10
231.42068999999998
20
-10.282405000000001
30
0
10
231.15547400000003
20
-10.282405000000001
30
0
0
LWPOLYLINE
5
119
100
AcDbEntity
8
0
100
AcDbPolyline
90
56
70
1
43
0.0
10
7.6021250000000009
20
-70.196623000000002
10
0.13229100000000002
20
-70.196623000000002
10
0.13229099999999994
20
-56.196434000000004
10
7.5979900000000002
20
-56.196434000000004
10
7.5861050000000008
20
-18.401295000000001
10
0.13229100000000002
20
-18.401295000000001
10
0.13229099999999994
20
-4.4011050000000012
10
7.5819710000000011
20
-4.4011050000000003
10
7.5804210000000083
20
0.63580000000000014
10
102.36627216258714
20
0.67020939980038996
10
102.37410373147226
20
-20.903021374940948
10
107.23433906011169
20
-20.901257000000001
10
107.241079
20
-41.065044
10
102.381423
20
-41.065044
10
102.381423
20
-58.501781999999992
10
131.93261299999998
20
-58.501781999999992
10
131.93261299999998
20
-41.065044
10
127.02283100000002
20
-41.065044
10
127.02257530226314
20
-20.901256999999998
10
131.9356449858158
20
-20.901995794920346
10
131.93888583940159
20
0.65004667664413773
10
226.68089500000005
20
0.63580000000000025
10
226.68089500000005
20
-4.4031730000000007
10
234.15537900000004
20
-4.4031730000000007
10
234.15537900000004
20
-18.403373000000002
10
226.68089500000005
20
-18.403373000000002
10
226.68142400000005
20
-56.196443999999993
10
234.15538999999998
20
-56.196443999999993
10
234.15538999999998
20
-70.196632999999991
10
226.68142400000005
20
-70.196632999999991
10
226.68142400000005
20
-82.840831999999992
10
197.995814
20
-82.841360999999992
10
197.99634300000002
20
-63.905554000000002
10
186.11747399999999
20
-63.905554000000002
10
186.11694499999999
20
-82.841879000000006
10
179.28893300000001
20
-82.841879000000006
10
179.28893300000001
20
-60.737784999999995
10
169.300904
20
-60.737784999999995
10
169.300904
20
-82.841879000000006
10
141.18890400000001
20
-82.841879000000006
10
141.18890400000001
20
-60.737784999999995
10
131.200875
20
-60.737784999999995
10
131.200875
20
-82.841879000000006
10
103.088875
20
-82.841879000000006
10
103.088875
20
-60.737784999999995
10
93.10084599999999
20
-60.737784999999995
10
93.10084599999999
20
-82.841879000000006
10
64.988845999999995
20
-82.841879000000006
10
64.988845999999995
20
-60.737784999999995
10
55.000817000000012
20
-60.737784999999995
10
55.000817000000012
20
-82.841879000000006
10
48.119063000000004
20
-82.841879000000006
10
48.111311000000008
20
-63.905554000000002
10
36.231406999999997
20
-63.905025000000002
10
36.231406999999997
20
-82.841350000000006
10
7.6062610000000008
20
-82.840820999999991
0
SPLINE
5
120
100
AcDbEntity
8
0
100
AcDbSpline
70
0
71
3
72
8
73
4
74
0
42
0.000000001
43
0.0000000001
44
0.0000000001
40
0
40
0
40
0
40
0
40
1
40
1
40
1
40
1
10
3.1322950000000005
20
-9.6133990000000011
30
0
10
2.7278330000000004
20
-9.6133990000000011
30
0
10
2.3631959999999999
20
-9.8570410000000006
30
0
10
2.2084150000000005
20
-10.230716000000001
30
0
0
SPLINE
5
121
100
AcDbEntity
8
0
100
AcDbSpline
70
0
71
3
72
8
73
4
74
0
42
0.000000001
43
0.0000000001
44
0.0000000001
40
0
40
0
40
0
40
0
40
1
40
1
40
1
40
1
10
231.97585000000004
20
-61.998013000000007
30
0
10
231.78831299999999
20
-61.810477000000006
30
0
10
231.53395899999998
20
-61.705119999999994
30
0
10
231.26874200000003
20
-61.705119999999994
30
0
0
SPLINE
5
122
100
AcDbEntity
8
0
100
AcDbSpline
70
0
71
3
72
8
73
4
74
0
42
0.000000001
43
0.0000000001
44
0.0000000001
40
0
40
0
40
0
40
0
40
1
40
1
40
1
40
1
10
2.4251879999999999
20
-11.320507000000003
30
0
10
2.7111860000000005
20
-11.606505
30
0
10
3.1413040000000003
20
-11.692061000000001
30
0
10
3.5149790000000003
20
-11.537280000000001
30
0
0
SPLINE
5
123
100
AcDbEntity
8
0
100
AcDbSpline
70
0
71
3
72
8
73
4
74
0
42
0.000000001
43
0.0000000001
44
0.0000000001
40
0
40
0
40
0
40
0
40
1
40
1
40
1
40
1
10
3.5149790000000003
20
-11.537280000000001
30
0
10
3.8886540000000003
20
-11.382499000000001
30
0
10
4.1322960000000002
20
-11.017862000000001
30
0
10
4.1322960000000002
20
-10.613400000000002
30
0
0
SPLINE
5
124
100
AcDbEntity
8
0
100
AcDbSpline
70
0
71
3
72
8
73
4
74
0
42
0.000000001
43
0.0000000001
44
0.0000000001
40
0
40
0
40
0
40
0
40
1
40
1
40
1
40
1
10
2.2084150000000005
20
-10.230716000000001
30
0
10
2.0536340000000002
20
-10.604389999999999
30
0
10
2.1391900000000001
20
-11.034509000000002
30
0
10
2.4251879999999999
20
-11.320507000000003
30
0
0
LWPOLYLINE
5
125
100
AcDbEntity
8
0
100
AcDbPolyline
90
4
70
1
43
0.0
10
210.15709799999999
20
-42.503334000000009
10
210.15709799999999
20
-56.501286000000007
10
224.15505100000001
20
-56.501286000000007
10
224.15505100000001
20
-42.503334000000009
0
LWPOLYLINE
5
126
100
AcDbEntity
8
0
100
AcDbPolyline
90
4
70
1
43
0.0
10
81.27992900000001
20
-4.4033050000000005
10
67.281976
20
-4.4033049999999996
10
67.281976
20
-18.401257000000001
10
81.27992900000001
20
-18.401257000000001
0
LWPOLYLINE
5
127
100
AcDbEntity
8
0
100
AcDbPolyline
90
4
70
1
43
0.0
10
24.129878000000001
20
-18.401257000000001
10
24.129878000000001
20
-4.4033050000000005
10
10.131925000000003
20
-4.4033049999999996
10
10.131925000000003
20
-18.401257000000001
0
LWPOLYLINE
5
128
100
AcDbEntity
8
0
100
AcDbPolyline
90
4
70
1
43
0.0
10
100.32993900000001
20
-4.4033050000000005
10
86.331986000000001
20
-4.4033049999999996
10
86.331986000000001
20
-18.401257000000001
10
100.32993900000001
20
-18.401257000000001
0
SPLINE
5
129
100
AcDbEntity
8
0
100
AcDbSpline
70
0
71
3
72
8
73
4
74
0
42
0.000000001
43
0.0000000001
44
0.0000000001
40
0
40
0
40
0
40
0
40
1
40
1
40
1
40
1
10
230.23159300000003
20
-10.899722000000001
30
0
10
230.07681200000005
20
-11.273397000000001
30
0
10
230.16236800000001
20
-11.703514999999999
30
0
10
230.44836600000002
20
-11.989513000000001
30
0
0
SPLINE
5
130
100
AcDbEntity
8
0
100
AcDbSpline
70
0
71
3
72
8
73
4
74
0
42
0.000000001
43
0.0000000001
44
0.0000000001
40
0
40
0
40
0
40
0
40
1
40
1
40
1
40
1
10
4.1322960000000002
20
-10.613400000000002
30
0
10
4.1322960000000002
20
-10.348183000000002
30
0
10
4.0269389999999996
20
-10.093829000000001
30
0
10
3.8394029999999999
20
-9.9062920000000005
30
0
0
SPLINE
5
131
100
AcDbEntity
8
0
100
AcDbSpline
70
0
71
3
72
8
73
4
74
0
42
0.000000001
43
0.0000000001
44
0.0000000001
40
0
40
0
40
0
40
0
40
1
40
1
40
1
40
1
10
3.8394029999999999
20
-9.9062920000000005
30
0
10
3.6518660000000009
20
-9.7187559999999991
30
0
10
3.3975120000000003
20
-9.6133990000000011
30
0
10
3.1322950000000005
20
-9.6133990000000011
30
0
0
SPLINE
5
132
100
AcDbEntity
8
0
100
AcDbSpline
70
0
71
3
72
8
73
4
74
0
42
0.000000001
43
0.0000000001
44
0.0000000001
40
0
40
0
40
0
40
0
40
1
40
1
40
1
40
1
10
231.15547400000003
20
-10.282405000000001
30
0
10
230.75101099999998
20
-10.282405000000001
30
0
10
230.38637400000002
20
-10.526047999999999
30
0
10
230.23159300000003
20
-10.899722000000001
30
0
0
LWPOLYLINE
5
133
100
AcDbEntity
8
0
100
AcDbPolyline
90
4
70
1
43
0.0
10
62.229907999999995
20
-4.4033050000000005
10
48.231955000000006
20
-4.4033049999999996
10
48.231955000000006
20
-18.401257000000001
10
62.229907999999995
20
-18.401257000000001
0
LWPOLYLINE
5
134
100
AcDbEntity
8
0
100
AcDbPolyline
90
4
70
1
43
0.0
10
29.181944000000005
20
-4.4033049999999996
10
29.181944000000005
20
-18.401257000000001
10
43.179896999999997
20
-18.401257000000001
10
43.179896999999997
20
-4.4033050000000005
0
LWPOLYLINE
5
135
100
AcDbEntity
8
0
100
AcDbPolyline
90
4
70
1
43
0.0
10
66.992417000000003
20
-37.451271000000006
10
66.992417000000003
20
-23.453317999999999
10
52.994464000000008
20
-23.453317999999999
10
52.994464000000008
20
-37.451271000000006
0
LWPOLYLINE
5
136
100
AcDbEntity
8
0
100
AcDbPolyline
90
4
70
1
43
0.0
10
47.942401000000004
20
-23.453317999999999
10
33.944448000000008
20
-23.453317999999999
10
33.944448000000008
20
-37.451271000000006
10
47.942401000000004
20
-37.451271000000006
0
LWPOLYLINE
5
137
100
AcDbEntity
8
0
100
AcDbPolyline
90
4
70
1
43
0.0
10
86.042431999999991
20
-23.453317999999999
10
72.044480000000007
20
-23.453317999999999
10
72.044480000000007
20
-37.451271000000006
10
86.042431999999991
20
-37.451271000000006
0
LWPOLYLINE
5
138
100
AcDbEntity
8
0
100
AcDbPolyline
90
4
70
1
43
0.0
10
14.894429999999998
20
-37.451271000000006
10
28.892383000000006
20
-37.451271000000006
10
28.892383000000006
20
-23.453317999999999
10
14.894429999999998
20
-23.453317999999999
0
LWPOLYLINE
5
139
100
AcDbEntity
8
0
100
AcDbPolyline
90
4
70
1
43
0.0
10
91.094490000000008
20
-23.453317999999999
10
91.094490000000008
20
-37.451271000000006
10
105.09244299999999
20
-37.451271000000006
10
105.09244299999999
20
-23.453317999999999
0
LWPOLYLINE
5
140
100
AcDbEntity
8
0
100
AcDbPolyline
90
4
70
1
43
0.0
10
24.129878000000001
20
-42.503334000000009
10
10.131925000000003
20
-42.503334000000009
10
10.131925000000003
20
-56.501286000000007
10
24.129878000000001
20
-56.501286000000007
0
LWPOLYLINE
5
141
100
AcDbEntity
8
0
100
AcDbPolyline
90
4
70
1
43
0.0
10
43.179896999999997
20
-42.503334000000009
10
29.181944000000005
20
-42.503334000000009
10
29.181944000000005
20
-56.501286000000007
10
43.179896999999997
20
-56.501286000000007
0
LWPOLYLINE
5
142
100
AcDbEntity
8
0
100
AcDbPolyline
90
4
70
1
43
0.0
10
224.15505100000001
20
-18.401257000000001
10
224.15505100000001
20
-4.4033050000000005
10
210.15709799999999
20
-4.4033049999999996
10
210.15709799999999
20
-18.401257000000001
0
LWPOLYLINE
5
143
100
AcDbEntity
8
0
100
AcDbPolyline
90
4
70
1
43
0.0
10
28.892383000000006
20
-65.985658000000001
10
14.894429999999998
20
-65.985658000000001
10
14.894429999999998
20
-79.983610999999996
10
28.892383000000006
20
-79.983610999999996
0
LWPOLYLINE
5
144
100
AcDbEntity
8
0
100
AcDbPolyline
90
4
70
1
43
0.0
10
205.10503600000004
20
-18.401257000000001
10
205.10503600000004
20
-4.4033050000000005
10
191.10708300000002
20
-4.4033049999999996
10
191.10708300000002
20
-18.401257000000001
0
LWPOLYLINE
5
145
100
AcDbEntity
8
0
100
AcDbPolyline
90
4
70
1
43
0.0
10
86.042431999999991
20
-79.983610999999996
10
86.042431999999991
20
-65.985658000000001
10
72.044480000000007
20
-65.985658000000001
10
72.044480000000007
20
-79.983610999999996
0
LWPOLYLINE
5
146
100
AcDbEntity
8
0
100
AcDbPolyline
90
4
70
1
43
0.0
10
167.00500400000004
20
-4.4033050000000005
10
153.00705099999999
20
-4.4033049999999996
10
153.00705099999999
20
-18.401257000000001
10
167.00500400000004
20
-18.401257000000001
0
LWPOLYLINE
5
147
100
AcDbEntity
8
0
100
AcDbPolyline
90
4
70
1
43
0.0
10
205.39459499999998
20
-65.985658000000001
10
205.39459499999998
20
-79.983610999999996
10
219.39254700000004
20
-79.983610999999996
10
219.39254700000004
20
-65.985658000000001
0
LWPOLYLINE
5
148
100
AcDbEntity
8
0
100
AcDbPolyline
90
4
70
1
43
0.0
10
110.14450600000002
20
-79.983610999999996
10
124.142459
20
-79.983610999999996
10
124.142459
20
-65.985658000000001
10
110.14450600000002
20
-65.985658000000001
0
LWPOLYLINE
5
149
100
AcDbEntity
8
0
100
AcDbPolyline
90
4
70
1
43
0.0
10
147.95497800000001
20
-18.401257000000001
10
147.95497800000001
20
-4.4033050000000005
10
133.95702600000001
20
-4.4033049999999996
10
133.95702600000001
20
-18.401257000000001
0
LWPOLYLINE
5
150
100
AcDbEntity
8
0
100
AcDbPolyline
90
4
70
1
43
0.0
10
148.24454700000001
20
-79.983610999999996
10
162.24250000000001
20
-79.983610999999996
10
162.24250000000001
20
-65.985658000000001
10
148.24454700000001
20
-65.985658000000001
0
LWPOLYLINE
5
151
100
AcDbEntity
8
0
100
AcDbPolyline
90
4
70
1
43
0.0
10
129.19452200000001
20
-23.453317999999999
10
129.19452200000001
20
-37.451271000000006
10
143.192474
20
-37.451271000000006
10
143.192474
20
-23.453317999999999
0
LWPOLYLINE
5
152
100
AcDbEntity
8
0
100
AcDbPolyline
90
4
70
1
43
0.0
10
186.34457900000001
20
-23.453317999999999
10
186.34457900000001
20
-37.451271000000006
10
200.34253200000001
20
-37.451271000000006
10
200.34253200000001
20
-23.453317999999999
0
LWPOLYLINE
5
153
100
AcDbEntity
8
0
100
AcDbPolyline
90
4
70
1
43
0.0
10
167.00500400000004
20
-56.501286000000007
10
167.00500400000004
20
-42.503334000000009
10
153.00705099999999
20
-42.503334000000009
10
153.00705099999999
20
-56.501286000000007
0
LWPOLYLINE
5
154
100
AcDbEntity
8
0
100
AcDbPolyline
90
4
70
1
43
0.0
10
167.29456299999998
20
-23.453317999999999
10
167.29456299999998
20
-37.451271000000006
10
181.29251600000001
20
-37.451271000000006
10
181.29251600000001
20
-23.453317999999999
0
LWPOLYLINE
5
155
100
AcDbEntity
8
0
100
AcDbPolyline
90
4
70
1
43
0.0
10
205.39459499999998
20
-37.451271000000006
10
219.39254700000004
20
-37.451271000000006
10
219.39254700000004
20
-23.453317999999999
10
205.39459499999998
20
-23.453317999999999
0
LWPOLYLINE
5
156
100
AcDbEntity
8
0
100
AcDbPolyline
90
4
70
1
43
0.0
10
148.24454700000001
20
-37.451271000000006
10
162.24250000000001
20
-37.451271000000006
10
162.24250000000001
20
-23.453317999999999
10
148.24454700000001
20
-23.453317999999999
0
LWPOLYLINE
5
157
100
AcDbEntity
8
0
100
AcDbPolyline
90
4
70
1
43
0.0
10
186.05501999999998
20
-56.501286000000007
10
186.05501999999998
20
-42.503334000000009
10
172.05706700000002
20
-42.503334000000009
10
172.05706700000002
20
-56.501286000000007
0
LWPOLYLINE
5
158
100
AcDbEntity
8
0
100
AcDbPolyline
90
4
70
1
43
0.0
10
147.95497800000001
20
-56.501286000000007
10
147.95497800000001
20
-42.503334000000009
10
133.95702600000001
20
-42.503334000000009
10
133.95702600000001
20
-56.501286000000007
0
LWPOLYLINE
5
159
100
AcDbEntity
8
0
100
AcDbPolyline
90
4
70
1
43
0.0
10
191.10708300000002
20
-56.501286000000007
10
205.10503600000004
20
-56.501286000000007
10
205.10503600000004
20
-42.503334000000009
10
191.10708300000002
20
-42.503334000000009
0
LWPOLYLINE
5
160
100
AcDbEntity
8
0
100
AcDbPolyline
90
4
70
1
43
0.0
10
172.05706700000002
20
-4.4033049999999996
10
172.05706700000002
20
-18.401257000000001
10
186.05501999999998
20
-18.401257000000001
10
186.05501999999998
20
-4.4033050000000005
0
ENDSEC
0
SECTION
2
OBJECTS
0
DICTIONARY
5
C
100
AcDbDictionary
3
ACAD_GROUP
350
D
3
ACAD_MLINESTYLE
350
17
0
DICTIONARY
5
D
100
AcDbDictionary
0
DICTIONARY
5
1A
330
C
100
AcDbDictionary
0
DICTIONARY
5
17
100
AcDbDictionary
0
ENDSEC
0
EOF
