0
SECTION
2
HEADER
9
$INSUNITS
70
4
9
$ACADVER
1
AC1014
9
$HANDSEED
5
FFFF
0
ENDSEC
0
SECTION
2
TABLES
0
TABLE
2
VPORT
5
8
100
AcDbSymbolTable
0
ENDTAB
0
TABLE
2
LTYPE
5
5
100
AcDbSymbolTable
0
LTYPE
5
14
100
AcDbSymbolTableRecord
100
AcDbLinetypeTableRecord
2
BYBLOCK
70
0
0
LTYPE
5
15
100
AcDbSymbolTableRecord
100
AcDbLinetypeTableRecord
2
BYLAYER
70
0
0
ENDTAB
0
TABLE
2
LAYER
5
2
100
AcDbSymbolTable
70
2
0
LAYER
5
50
100
AcDbSymbolTableRecord
100
AcDbLayerTableRecord
2
0
70
0
6
CONTINUOUS
0
ENDTAB
0
TABLE
2
STYLE
5
3
100
AcDbSymbolTable
70
1
0
STYLE
5
11
100
AcDbSymbolTableRecord
100
AcDbTextStyleTableRecord
2
STANDARD
70
0
0
ENDTAB
0
TABLE
2
VIEW
5
6
100
AcDbSymbolTable
70
0
0
ENDTAB
0
TABLE
2
UCS
5
7
100
AcDbSymbolTable
70
0
0
ENDTAB
0
TABLE
2
APPID
5
9
100
AcDbSymbolTable
70
2
0
APPID
5
12
100
AcDbSymbolTableRecord
100
AcDbRegAppTableRecord
2
ACAD
70
0
0
ENDTAB
0
TABLE
2
DIMSTYLE
5
A
100
AcDbSymbolTable
70
1
0
ENDTAB
0
TABLE
2
BLOCK_RECORD
5
1
100
AcDbSymbolTable
70
1
0
BLOCK_RECORD
5
1F
100
AcDbSymbolTableRecord
100
AcDbBlockTableRecord
2
*MODEL_SPACE
0
BLOCK_RECORD
5
1B
100
AcDbSymbolTableRecord
100
AcDbBlockTableRecord
2
*PAPER_SPACE
0
ENDTAB
0
ENDSEC
0
SECTION
2
BLOCKS
0
BLOCK
5
20
100
AcDbEntity
100
AcDbBlockBegin
2
*MODEL_SPACE
0
ENDBLK
5
21
100
AcDbEntity
100
AcDbBlockEnd
0
BLOCK
5
1C
100
AcDbEntity
100
AcDbBlockBegin
2
*PAPER_SPACE
0
ENDBLK
5
1D
100
AcDbEntity
100
AcDbBlockEnd
0
ENDSEC
0
SECTION
2
ENTITIES
0
LWPOLYLINE
5
100
100
AcDbEntity
8
0
100
AcDbPolyline
90
4
70
1
43
0.0
10
100.32993900000001
20
-56.501286000000007
10
100.32993900000001
20
-42.503334000000009
10
86.331986000000001
20
-42.503334000000009
10
86.331986000000001
20
-56.501286000000007
0
LWPOLYLINE
5
101
100
AcDbEntity
8
0
100
AcDbPolyline
90
4
70
1
43
0.0
10
48.231955000000006
20
-42.503334000000009
10
48.231955000000006
20
-56.501286000000007
10
62.229907999999995
20
-56.501286000000007
10
62.229907999999995
20
-42.503334000000009
0
LWPOLYLINE
5
102
100
AcDbEntity
8
0
100
AcDbPolyline
90
4
70
1
43
0.0
10
81.27992900000001
20
-42.503334000000009
10
67.281976
20
-42.503334000000009
10
67.281976
20
-56.501286000000007
10
81.27992900000001
20
-56.501286000000007
0
LINE
5
103
100
AcDbEntity
8
0
100
AcDbLine
10
197.99645200000001
20
-63.905391000000009
30
0
11
186.11744200000001
21
-63.905391000000009
31
0
0
LWPOLYLINE
5
104
100
AcDbEntity
8
0
100
AcDbPolyline
90
40
70
1
43
0.0
10
226.68089500000005
20
0.6357999999999997
10
226.68142400000005
20
-82.840831999999992
10
197.995814
20
-82.841360999999992
10
197.99634300000002
20
-63.905554000000002
10
186.11747399999999
20
-63.905554000000002
10
186.11694499999999
20
-82.841879000000006
10
179.28893300000001
20
-82.841879000000006
10
179.28893300000001
20
-60.737784999999995
10
169.300904
20
-60.737784999999995
10
169.300904
20
-82.841879000000006
10
141.18890400000001
20
-82.841879000000006
10
141.18890400000001
20
-60.737784999999995
10
131.200875
20
-60.737784999999995
10
131.200875
20
-82.841879000000006
10
103.088875
20
-82.841879000000006
10
103.088875
20
-60.737784999999995
10
93.10084599999999
20
-60.737784999999995
10
93.10084599999999
20
-82.841879000000006
10
64.988845999999995
20
-82.841879000000006
10
64.988845999999995
20
-60.737784999999995
10
55.000817000000012
20
-60.737784999999995
10
55.000817000000012
20
-82.841879000000006
10
48.119063000000004
20
-82.841879000000006
10
48.111311000000008
20
-63.905554000000002
10
36.231406999999997
20
-63.905025000000002
10
36.231406999999997
20
-82.841350000000006
10
7.6062610000000008
20
-82.840820999999991
10
7.5804210000000083
20
0.63580000000000014
10
102.36627216258714
20
0.67020939980038996
10
102.37410373147226
20
-20.903021374940948
10
107.23433906011169
20
-20.901257000000001
10
107.241079
20
-41.065044
10
102.381423
20
-41.065044
10
102.381423
20
-58.501781999999992
10
131.93261299999998
20
-58.501781999999992
10
131.93261299999998
20
-41.065044
10
127.02283100000002
20
-41.065044
10
127.02257530226314
20
-20.901256999999998
10
131.9356449858158
20
-20.901995794920346
10
131.93888583940159
20
0.65004667664413773
0
LWPOLYLINE
5
105
100
AcDbEntity
8
0
100
AcDbPolyline
90
4
70
1
43
0.0
10
210.15709799999999
20
-42.503334000000009
10
210.15709799999999
20
-56.501286000000007
10
224.15505100000001
20
-56.501286000000007
10
224.15505100000001
20
-42.503334000000009
0
LWPOLYLINE
5
106
100
AcDbEntity
8
0
100
AcDbPolyline
90
4
70
1
43
0.0
10
81.27992900000001
20
-4.4033050000000005
10
67.281976
20
-4.4033049999999996
10
67.281976
20
-18.401257000000001
10
81.27992900000001
20
-18.401257000000001
0
LWPOLYLINE
5
107
100
AcDbEntity
8
0
100
AcDbPolyline
90
4
70
1
43
0.0
10
24.129878000000001
20
-18.401257000000001
10
24.129878000000001
20
-4.4033050000000005
10
10.131925000000003
20
-4.4033049999999996
10
10.131925000000003
20
-18.401257000000001
0
LWPOLYLINE
5
108
100
AcDbEntity
8
0
100
AcDbPolyline
90
4
70
1
43
0.0
10
100.32993900000001
20
-4.4033050000000005
10
86.331986000000001
20
-4.4033049999999996
10
86.331986000000001
20
-18.401257000000001
10
100.32993900000001
20
-18.401257000000001
0
LWPOLYLINE
5
109
100
AcDbEntity
8
0
100
AcDbPolyline
90
4
70
1
43
0.0
10
62.229907999999995
20
-4.4033050000000005
10
48.231955000000006
20
-4.4033049999999996
10
48.231955000000006
20
-18.401257000000001
10
62.229907999999995
20
-18.401257000000001
0
LWPOLYLINE
5
110
100
AcDbEntity
8
0
100
AcDbPolyline
90
4
70
1
43
0.0
10
29.181944000000005
20
-4.4033049999999996
10
29.181944000000005
20
-18.401257000000001
10
43.179896999999997
20
-18.401257000000001
10
43.179896999999997
20
-4.4033050000000005
0
LWPOLYLINE
5
111
100
AcDbEntity
8
0
100
AcDbPolyline
90
4
70
1
43
0.0
10
66.992417000000003
20
-37.451271000000006
10
66.992417000000003
20
-23.453317999999999
10
52.994464000000008
20
-23.453317999999999
10
52.994464000000008
20
-37.451271000000006
0
LWPOLYLINE
5
112
100
AcDbEntity
8
0
100
AcDbPolyline
90
4
70
1
43
0.0
10
47.942401000000004
20
-23.453317999999999
10
33.944448000000008
20
-23.453317999999999
10
33.944448000000008
20
-37.451271000000006
10
47.942401000000004
20
-37.451271000000006
0
LWPOLYLINE
5
113
100
AcDbEntity
8
0
100
AcDbPolyline
90
4
70
1
43
0.0
10
86.042431999999991
20
-23.453317999999999
10
72.044480000000007
20
-23.453317999999999
10
72.044480000000007
20
-37.451271000000006
10
86.042431999999991
20
-37.451271000000006
0
LWPOLYLINE
5
114
100
AcDbEntity
8
0
100
AcDbPolyline
90
4
70
1
43
0.0
10
14.894429999999998
20
-37.451271000000006
10
28.892383000000006
20
-37.451271000000006
10
28.892383000000006
20
-23.453317999999999
10
14.894429999999998
20
-23.453317999999999
0
LWPOLYLINE
5
115
100
AcDbEntity
8
0
100
AcDbPolyline
90
4
70
1
43
0.0
10
91.094490000000008
20
-23.453317999999999
10
91.094490000000008
20
-37.451271000000006
10
105.09244299999999
20
-37.451271000000006
10
105.09244299999999
20
-23.453317999999999
0
LWPOLYLINE
5
116
100
AcDbEntity
8
0
100
AcDbPolyline
90
4
70
1
43
0.0
10
24.129878000000001
20
-42.503334000000009
10
10.131925000000003
20
-42.503334000000009
10
10.131925000000003
20
-56.501286000000007
10
24.129878000000001
20
-56.501286000000007
0
LWPOLYLINE
5
117
100
AcDbEntity
8
0
100
AcDbPolyline
90
4
70
1
43
0.0
10
43.179896999999997
20
-42.503334000000009
10
29.181944000000005
20
-42.503334000000009
10
29.181944000000005
20
-56.501286000000007
10
43.179896999999997
20
-56.501286000000007
0
LWPOLYLINE
5
118
100
AcDbEntity
8
0
100
AcDbPolyline
90
4
70
1
43
0.0
10
224.15505100000001
20
-18.401257000000001
10
224.15505100000001
20
-4.4033050000000005
10
210.15709799999999
20
-4.4033049999999996
10
210.15709799999999
20
-18.401257000000001
0
LWPOLYLINE
5
119
100
AcDbEntity
8
0
100
AcDbPolyline
90
4
70
1
43
0.0
10
28.892383000000006
20
-65.985658000000001
10
14.894429999999998
20
-65.985658000000001
10
14.894429999999998
20
-79.983610999999996
10
28.892383000000006
20
-79.983610999999996
0
LWPOLYLINE
5
120
100
AcDbEntity
8
0
100
AcDbPolyline
90
4
70
1
43
0.0
10
205.10503600000004
20
-18.401257000000001
10
205.10503600000004
20
-4.4033050000000005
10
191.10708300000002
20
-4.4033049999999996
10
191.10708300000002
20
-18.401257000000001
0
LWPOLYLINE
5
121
100
AcDbEntity
8
0
100
AcDbPolyline
90
4
70
1
43
0.0
10
86.042431999999991
20
-79.983610999999996
10
86.042431999999991
20
-65.985658000000001
10
72.044480000000007
20
-65.985658000000001
10
72.044480000000007
20
-79.983610999999996
0
LWPOLYLINE
5
122
100
AcDbEntity
8
0
100
AcDbPolyline
90
4
70
1
43
0.0
10
167.00500400000004
20
-4.4033050000000005
10
153.00705099999999
20
-4.4033049999999996
10
153.00705099999999
20
-18.401257000000001
10
167.00500400000004
20
-18.401257000000001
0
LWPOLYLINE
5
123
100
AcDbEntity
8
0
100
AcDbPolyline
90
4
70
1
43
0.0
10
205.39459499999998
20
-65.985658000000001
10
205.39459499999998
20
-79.983610999999996
10
219.39254700000004
20
-79.983610999999996
10
219.39254700000004
20
-65.985658000000001
0
LWPOLYLINE
5
124
100
AcDbEntity
8
0
100
AcDbPolyline
90
4
70
1
43
0.0
10
110.14450600000002
20
-79.983610999999996
10
124.142459
20
-79.983610999999996
10
124.142459
20
-65.985658000000001
10
110.14450600000002
20
-65.985658000000001
0
LWPOLYLINE
5
125
100
AcDbEntity
8
0
100
AcDbPolyline
90
4
70
1
43
0.0
10
147.95497800000001
20
-18.401257000000001
10
147.95497800000001
20
-4.4033050000000005
10
133.95702600000001
20
-4.4033049999999996
10
133.95702600000001
20
-18.401257000000001
0
LWPOLYLINE
5
126
100
AcDbEntity
8
0
100
AcDbPolyline
90
4
70
1
43
0.0
10
148.24454700000001
20
-79.983610999999996
10
162.24250000000001
20
-79.983610999999996
10
162.24250000000001
20
-65.985658000000001
10
148.24454700000001
20
-65.985658000000001
0
LWPOLYLINE
5
127
100
AcDbEntity
8
0
100
AcDbPolyline
90
4
70
1
43
0.0
10
129.19452200000001
20
-23.453317999999999
10
129.19452200000001
20
-37.451271000000006
10
143.192474
20
-37.451271000000006
10
143.192474
20
-23.453317999999999
0
LWPOLYLINE
5
128
100
AcDbEntity
8
0
100
AcDbPolyline
90
4
70
1
43
0.0
10
186.34457900000001
20
-23.453317999999999
10
186.34457900000001
20
-37.451271000000006
10
200.34253200000001
20
-37.451271000000006
10
200.34253200000001
20
-23.453317999999999
0
LWPOLYLINE
5
129
100
AcDbEntity
8
0
100
AcDbPolyline
90
4
70
1
43
0.0
10
167.00500400000004
20
-56.501286000000007
10
167.00500400000004
20
-42.503334000000009
10
153.00705099999999
20
-42.503334000000009
10
153.00705099999999
20
-56.501286000000007
0
LWPOLYLINE
5
130
100
AcDbEntity
8
0
100
AcDbPolyline
90
4
70
1
43
0.0
10
167.29456299999998
20
-23.453317999999999
10
167.29456299999998
20
-37.451271000000006
10
181.29251600000001
20
-37.451271000000006
10
181.29251600000001
20
-23.453317999999999
0
LWPOLYLINE
5
131
100
AcDbEntity
8
0
100
AcDbPolyline
90
4
70
1
43
0.0
10
205.39459499999998
20
-37.451271000000006
10
219.39254700000004
20
-37.451271000000006
10
219.39254700000004
20
-23.453317999999999
10
205.39459499999998
20
-23.453317999999999
0
LWPOLYLINE
5
132
100
AcDbEntity
8
0
100
AcDbPolyline
90
4
70
1
43
0.0
10
148.24454700000001
20
-37.451271000000006
10
162.24250000000001
20
-37.451271000000006
10
162.24250000000001
20
-23.453317999999999
10
148.24454700000001
20
-23.453317999999999
0
LWPOLYLINE
5
133
100
AcDbEntity
8
0
100
AcDbPolyline
90
4
70
1
43
0.0
10
186.05501999999998
20
-56.501286000000007
10
186.05501999999998
20
-42.503334000000009
10
172.05706700000002
20
-42.503334000000009
10
172.05706700000002
20
-56.501286000000007
0
LWPOLYLINE
5
134
100
AcDbEntity
8
0
100
AcDbPolyline
90
4
70
1
43
0.0
10
147.95497800000001
20
-56.501286000000007
10
147.95497800000001
20
-42.503334000000009
10
133.95702600000001
20
-42.503334000000009
10
133.95702600000001
20
-56.501286000000007
0
LWPOLYLINE
5
135
100
AcDbEntity
8
0
100
AcDbPolyline
90
4
70
1
43
0.0
10
191.10708300000002
20
-56.501286000000007
10
205.10503600000004
20
-56.501286000000007
10
205.10503600000004
20
-42.503334000000009
10
191.10708300000002
20
-42.503334000000009
0
LWPOLYLINE
5
136
100
AcDbEntity
8
0
100
AcDbPolyline
90
4
70
1
43
0.0
10
172.05706700000002
20
-4.4033049999999996
10
172.05706700000002
20
-18.401257000000001
10
186.05501999999998
20
-18.401257000000001
10
186.05501999999998
20
-4.4033050000000005
0
ENDSEC
0
SECTION
2
OBJECTS
0
DICTIONARY
5
C
100
AcDbDictionary
3
ACAD_GROUP
350
D
3
ACAD_MLINESTYLE
350
17
0
DICTIONARY
5
D
100
AcDbDictionary
0
DICTIONARY
5
1A
330
C
100
AcDbDictionary
0
DICTIONARY
5
17
100
AcDbDictionary
0
ENDSEC
0
EOF
